<?xml version="1.0" encoding="UTF-8"?>
<!DOCTYPE svg PUBLIC "-//W3C//DTD SVG 1.1//EN" "http://www.w3.org/Graphics/SVG/1.1/DTD/svg11.dtd">
<!-- Creator: CorelDRAW -->
<svg xmlns="http://www.w3.org/2000/svg" xml:space="preserve" width="25.869mm" height="25.869mm" version="1.1" shape-rendering="geometricPrecision" text-rendering="geometricPrecision" image-rendering="optimizeQuality" fill-rule="evenodd" clip-rule="evenodd"
viewBox="0 0 2572.72 2572.72"
 xmlns:xlink="http://www.w3.org/1999/xlink"
 xmlns:xodm="http://www.corel.com/coreldraw/odm/2003">
 <g id="Camada_x0020_1">
  <metadata id="CorelCorpID_0Corel-Layer"/>
  <rect fill="#FF8A00" x="-0" y="-0" width="2572.72" height="2572.72"/>
  <g id="_2543478549008">
   <path fill="white" fill-rule="nonzero" d="M706.7 218.89c54.69,-12.16 112.75,23.03 127.71,76.75 12.56,55.22 8.79,112.7 7.14,168.85 -1.64,33.11 -16.78,64.84 -42.17,86.28 -49.09,44.74 -141.23,26.1 -165.7,-36.93 -21.88,-56.38 -12.42,-118.7 -13.4,-177.73 -3.29,-52.28 32.53,-109.42 86.41,-117.22z"/>
   <path fill="white" fill-rule="nonzero" d="M1820.73 218.41c33.25,-5.06 70.8,0.09 95.61,24.81 32.62,24.54 37.59,68.62 39.32,106.39 0.71,47.05 5.41,95.08 -4.53,141.46 -12.25,56.77 -76.39,96.28 -132.5,80.82 -48.65,-10.56 -84.51,-56.99 -85.58,-106.21 -4.08,-64.28 -10.56,-131.65 13.05,-193.21 14.74,-28.18 42.88,-49.58 74.62,-54.06z"/>
   <g>
    <path fill="white" fill-rule="nonzero" d="M891.49 371.81c263.09,-0.09 526.17,-0.05 789.29,-0.05 0.63,60.94 -7.05,127.66 26.95,182.13 28.36,53.49 92.72,78.07 150.91,70.48 73.25,0.67 138.27,-64.28 143.15,-136.49 4,-37.82 3.55,-75.86 4,-113.81 55.26,6.61 111.41,20.29 157.75,52.51 70.31,50.69 110.88,138.36 107.82,224.73 0.76,406.9 -0.31,813.83 0.49,1220.78 7.1,150.02 -85.49,298.06 -222.28,359.35 -68.58,33.07 -147.19,35.69 -221.85,35.82 -384.71,-0.85 -769.45,0.76 -1154.2,-0.71 -135.24,-3.02 -267.35,-82.08 -328.6,-203.48 -34.18,-58.86 -45.72,-128.14 -44.3,-195.43 0.27,-406.9 0.31,-813.83 -0.05,-1220.73 -1.42,-91.87 48.56,-184.91 129.44,-230.05 41.37,-28.32 92.46,-34.58 140.79,-41.82 1.02,62.19 -7.23,133.83 32.58,187.1 53,83.31 187.76,85.66 249.01,10.56 45.9,-55.88 37.73,-133.69 39.1,-200.89zm-255.98 384.3l0 0c-83.93,5.14 -145.59,85.09 -147.81,165.92 -1.6,295.93 0.49,591.9 -0.93,887.88 1.2,50.6 -3.46,105.24 22.29,151.14 32.93,67.65 106.52,114.07 182.26,110.92 384.7,-0.18 769.45,-0.4 1154.19,0.09 43.9,0.4 89.62,-1.82 129.92,-21.3 64.1,-32.23 110.21,-101.65 109.28,-174.13 1.47,-295.98 -0.49,-591.95 0.9,-887.88 -0.67,-47.45 2.66,-97.34 -19.09,-141.15 -28.35,-63.6 -100.7,-96.05 -167.65,-94.01 -369.96,-0.49 -739.88,0.31 -1109.8,-0.27 -51.19,0.14 -102.53,-1.9 -153.54,2.8z"/>
   </g>
   <path fill="white" fill-rule="nonzero" d="M1256.04 887.59c13.59,-14.52 40.71,-19.89 55.23,-3.69 62.41,51.14 112.96,123.84 116.16,206.93 -3.55,60.01 -47.9,107.51 -95.83,139.02 -1.11,-39.95 1.59,-80.25 -2.84,-119.94 -9.14,-19.52 -29.65,-30.17 -45.27,-43.81 -13.32,12.83 -33.34,22.11 -38.85,40.71 -4.44,39.19 -3.05,78.84 -3.77,118.25 -28.27,-19.35 -61.21,-40.26 -72.53,-74.62 -12.38,-41.41 -21.75,-87.48 -5.01,-129.16 20.69,-50.51 53.22,-96.19 92.72,-133.69z"/>
   <path fill="white" fill-rule="nonzero" d="M1075.07 1297.59c139.82,-5.86 279.91,-1.51 419.86,-2.49 102.67,3.37 202.1,66.93 239.07,164.32 13.5,45.98 20.69,104.39 -18.11,140.92 -36.09,26.94 -90.33,31.91 -127.75,5.1 -32.31,-20.24 -54.11,-55.26 -90.73,-68.75 -25.79,-2.62 -54.6,-7.28 -77.85,7.37 -34.71,18.51 -54.55,58.59 -92.86,71.2 -27.84,4.44 -59.12,9.41 -84.91,-5.24 -38.62,-19.05 -61.83,-61.07 -104.93,-72.57 -19.35,-2.09 -41.14,-7.86 -59.48,1.5 -36.4,17.98 -62.14,50.96 -96.23,72.4 -44.56,24.9 -105.69,9.41 -134.45,-32.22 -28.18,-34.8 -20.24,-85.98 -4.35,-124.33 39.14,-91.53 135.69,-148.83 232.72,-157.21z"/>
   <path fill="white" fill-rule="nonzero" d="M1101.93 1625.92c6.31,-4.44 13.76,-1.02 19.58,2.44 30.89,19.26 56.55,49.27 93.03,58.19 43.64,10.3 89.8,11.68 133.87,3.38 45.99,-6.39 76.53,-45.59 115.81,-66.22 9.5,-1.65 16.96,5.99 24.01,11.01 21.66,17.04 43.06,35.24 67.96,47.54 39.02,17.44 83.14,10.91 123.4,1.24 1.82,53.79 3.51,107.68 0.8,161.47 -2.62,32.18 -17.66,64.85 -45.36,82.78 -26.19,14.79 -58.28,8.7 -86.91,11.24 -185,-1.07 -370.05,0.49 -555.01,-0.63 -50.74,4.4 -100.63,-41.28 -96.64,-92.95 -2.58,-53.31 -0.97,-106.66 -0.76,-159.97 37.03,6.52 75.77,13.1 112.57,2.13 36.13,-12.42 61.47,-42.65 93.65,-61.65z"/>
  </g>
 </g>
</svg>
